<!-- by TradingView --><svg width="18" height="18" viewBox="0 0 18 18" xmlns="http://www.w3.org/2000/svg"><path fill="url(#a)" d="M0 0h18v18H0z"/><path d="M11.98 6.97c-.35 1.27-1.15 1.95-2.38 2.04V4.06A.06.06 0 0 1 9.64 4 .05.05 0 0 1 9.67 4c1.21.11 1.98.79 2.3 2.02.03.13.04.45.01.95Z" fill="#3CEAF3"/><path d="M11.98 6.97v4.48a.06.06 0 0 1-.01.04h-.02l-.02.01A2.43 2.43 0 0 1 9.6 9.01c1.23-.09 2.03-.77 2.38-2.04ZM8.35 9.6c-.4 1.21-1.19 1.85-2.35 1.92V6.56a.06.06 0 0 1 .02-.04.06.06 0 0 1 .05-.02c.95.06 1.64.51 2.05 1.36.26.52.34 1.1.23 1.74Z" fill="#fff"/><path d="M6 11.52c1.16-.07 2-1 2.4-2.2v4.62c0 .02-.06.06-.08.06a2.3 2.3 0 0 1-1.64-.75A2.5 2.5 0 0 1 6 11.52Z" fill="#38D102"/><defs><linearGradient id="a" x1="3.35" y1="3.12" x2="21.9" y2="24.43" gradientUnits="userSpaceOnUse"><stop stop-color="#1A1E21"/><stop offset="1" stop-color="#06060A"/></linearGradient></defs></svg>